Simulation
nRows=48
nColumns=15
endheader
time  TH_x TH_y TH_z SC_y  SC_z  SC_x  AC_y  AC_z  AC_x  GH_y  GH_z  GH_yy  EL_x  PS_y
0.0  0.000000  0.000000  0.000000  -31.579589746427107  1.0470371249958574  28.662291076953053  49.84080316169312  -12.801195356210638  -16.926323364969477  -120.96423432924315  5.118338755624569  152.34787173040226  22.80982596399945  0.000000
0.031  0.000000  0.000000  0.000000  -30.864353904066302  1.3977469723368354  28.366523758245457  49.61238797723616  -13.376393454950222  -18.037012459577895  -111.02932833605637  5.6558578312571335  142.42763208531866  22.546453949972715  0.000000
0.062  0.000000  0.000000  0.000000  -30.71033238269554  1.2183996649487137  28.64230558009985  48.78641074338006  -14.120909328690688  -18.82851771193545  -103.529700381887  6.425639737740473  134.8558719360861  22.346282482632926  0.000000
0.093  0.000000  0.000000  0.000000  -30.46271149713316  0.8410760708945483  28.935483195647606  48.14502450986966  -15.125073181621758  -19.50806320401157  -98.05749254907481  7.122688980961377  129.26299707452847  22.267567971533765  0.000000
0.124  0.000000  0.000000  0.000000  -30.19006032670052  0.35210370851609224  29.460184258502508  46.89460319311703  -16.08192477247381  -19.840101707380086  -94.42977155813445  7.849178193498367  125.56098098957591  22.1763999591321  0.000000
0.155  0.000000  0.000000  0.000000  -29.995738938620082  -0.2557337271677889  30.14998188611663  45.739910016080394  -17.09738168248865  -20.161391957471423  -92.29419728270263  8.568713754253091  123.36066148494159  22.14070032752702  0.000000
0.186  0.000000  0.000000  0.000000  -29.96350520799776  -0.9141408935676854  30.89370917021673  44.70591542316347  -17.966971079731024  -20.351462517183858  -91.17388610120408  8.83008785837503  122.07087581080559  22.137631327735313  0.000000
0.217  0.000000  0.000000  0.000000  -29.839310782095964  -1.4353129949739283  31.312466349903037  44.69264577063316  -18.95819736075775  -20.792710294089815  -90.35014147553058  8.305506020457308  120.85462420527746  22.152156617082966  0.000000
0.248  0.000000  0.000000  0.000000  -29.84373387471498  -1.7071525804076155  31.719999385942234  44.50581105548551  -19.62995170367511  -21.0810047603511  -89.39427889137734  7.603545337150631  119.53962173675266  22.262842707416265  0.000000
0.279  0.000000  0.000000  0.000000  -29.766868934482225  -1.845267971923464  32.011490509317646  44.453771944212164  -20.226194753981602  -21.50914942012122  -87.02444689326441  6.947477026193627  116.75429712482908  22.31751604250118  0.000000
0.31  0.000000  0.000000  0.000000  -29.73861980373275  -1.9372102512875784  32.31928878501726  44.15574917219754  -20.529276744359247  -21.790989188224888  -82.42748181744264  6.284164543871885  111.67957591583293  22.278724421372758  0.000000
0.34099999999999997  0.000000  0.000000  0.000000  -29.654870392243627  -1.9884713280796478  32.56484949003052  44.14364149897236  -20.86505390261329  -22.194080973393095  -75.06867293710397  5.728176962876766  103.81145666653109  22.223410073912724  0.000000
0.372  0.000000  0.000000  0.000000  -29.648768801269863  -2.024157437785484  32.88878256997297  43.90706585228257  -20.968526463452754  -22.393799161456233  -64.70124022043565  5.333377726486727  92.88927384356178  22.133626304728153  0.000000
0.403  0.000000  0.000000  0.000000  -29.59575116439516  -2.0257060891944927  33.17824576221837  44.01838706854555  -21.178076015952925  -22.718293115893264  -51.62433453192397  5.184476356265408  79.2171821595025  22.043720012205615  0.000000
0.434  0.000000  0.000000  0.000000  -29.625802892802934  -2.0069095118082787  33.57987085981082  43.884463788324375  -21.190993424850827  -22.83519203297152  -37.58055982184999  5.3857125338022005  64.55476495392149  21.94582394039638  0.000000
0.46499999999999997  0.000000  0.000000  0.000000  -29.6063793319228  -1.9581230969167238  33.95756679355877  44.09800902804341  -21.342164467148518  -23.093276285342913  -24.249303448266488  5.940768060834898  50.559398926635524  21.845173250355987  0.000000
0.496  0.000000  0.000000  0.000000  -29.669851029387427  -1.8886835780792623  34.45976650139267  44.04986211821683  -21.309925521622798  -23.157253500831814  -13.317398090133238  6.825893608100487  38.9580066554632  21.74730273584988  0.000000
0.527  0.000000  0.000000  0.000000  -29.67711824475114  -1.7930337334389383  34.93219623231731  44.33756792599113  -21.42233071162057  -23.376714208192965  -4.6758244491412775  7.968305370449494  29.605312961996738  21.64371561791939  0.000000
0.558  0.000000  0.000000  0.000000  -29.766746184838613  -1.6751367241436859  35.53095693959878  44.34848020059886  -21.35067269973255  -23.407571677972  1.7207547523205091  9.296356563730416  22.50669588210492  21.54432803465682  0.000000
0.589  0.000000  0.000000  0.000000  -29.79558451159405  -1.5323054187920782  36.06285657000974  44.69176130569547  -21.40815292139649  -23.5862471486961  6.634652088429889  10.774422887757403  16.855810793418613  21.438556343905997  0.000000
0.62  0.000000  0.000000  0.000000  -29.90286930058959  -1.3694583861670362  36.70179505149587  44.744683301948164  -21.270084367683303  -23.565780941721307  10.229448400303063  12.341841137948851  12.545244258451957  21.336026703827713  0.000000
0.651  0.000000  0.000000  0.000000  -29.94845343560294  -1.1861330950705313  37.23331929705702  45.134646513220204  -21.24539777864846  -23.68048463743914  13.033939142363256  13.99573275761364  8.99549908848166  21.224186295960536  0.000000
0.6819999999999999  0.000000  0.000000  0.000000  -30.06937563481546  -0.9911431866083575  37.83688299724747  45.22308255442597  -21.012016606811283  -23.575594655473374  15.068727788484933  15.686822147881573  6.244602812877759  21.118669217335057  0.000000
0.713  0.000000  0.000000  0.000000  -30.12960366606227  -0.7869412465096988  38.3189585455678  45.66920154279044  -20.884962607559373  -23.598729679794587  16.662696541128103  17.40800359146077  3.909483627060991  20.99794777880747  0.000000
0.744  0.000000  0.000000  0.000000  -30.26454370763737  -0.5770883945279203  38.87751704466355  45.78574093742688  -20.57327658754376  -23.413040736550844  17.79263488747453  19.141547932295712  2.0699076951376836  20.88841948106971  0.000000
0.775  0.000000  0.000000  0.000000  -30.335949713378035  -0.35655942994282763  39.31603033483213  46.26047101773935  -20.37902638722212  -23.360322472027654  18.6693586978935  20.875582784919086  0.46535719555139166  20.762699793986744  0.000000
0.806  0.000000  0.000000  0.000000  -30.48156062900617  -0.1342611789090317  39.821136980214156  46.39754949843821  -20.01407595282535  -23.092642284763304  19.258040985493093  22.611321728883958  -0.8269633809274416  20.647647019364335  0.000000
0.837  0.000000  0.000000  0.000000  -30.560966382025395  0.10122845353454528  40.198602610394126  46.88621519658569  -19.764994218733325  -22.947887234877488  19.667314316049087  24.329092309928335  -1.9464927496644127  20.525940080468178  0.000000
0.868  0.000000  0.000000  0.000000  -30.711920789269286  0.3390500472876803  40.62258095452532  47.05391398701075  -19.367731418745894  -22.571571071125458  19.880542303337553  26.06430474261003  -2.868933483634666  20.404948107335045  0.000000
0.899  0.000000  0.000000  0.000000  -30.79422027064376  0.6003043321380374  40.917314701458565  47.54913732828695  -19.08946625555584  -22.283578949690174  19.90259343733737  27.77694814258425  -3.6002937557472534  20.295112272062173  0.000000
0.9299999999999999  0.000000  0.000000  0.000000  -30.936855621495305  0.8826941424764766  41.2354021556203  47.77791815103061  -18.6809334107804  -21.734292461605307  19.743583106878635  29.54001419036697  -4.189765602476162  20.174523477783215  0.000000
0.961  0.000000  0.000000  0.000000  -31.00904233105189  1.1999768377251934  41.45052278231781  48.301972900766586  -18.39464268917841  -21.213146660847485  19.31465004351951  31.298011366152704  -4.527050164729559  20.080021839088264  0.000000
0.992  0.000000  0.000000  0.000000  -31.1637131491741  1.593503395710018  41.672752293581496  48.67568580013854  -17.970188114243676  -20.333885512524706  18.600053988611293  33.15081975870609  -4.687637248585383  19.968240369219796  0.000000
1.023  0.000000  0.000000  0.000000  -31.239202237010524  2.0972480919896324  41.88112716476117  49.38926533188494  -17.665625584027026  -19.319491336315828  17.334361284120835  34.97082199948098  -4.369744618669726  19.883620088408186  0.000000
1.054  0.000000  0.000000  0.000000  -31.365911246078976  2.7381323217407396  42.173712688439345  50.0220795720531  -17.108302665456105  -17.898021216947573  15.586870451667322  36.84218173765945  -3.790317667385344  19.76699679734103  0.000000
1.085  0.000000  0.000000  0.000000  -31.47941972766778  3.5104507686082287  42.58380954535573  50.995353262134785  -16.431871825238964  -16.30070701253612  13.22006591281089  38.5617228635784  -2.604319891491966  19.787173826991182  0.000000
1.116  0.000000  0.000000  0.000000  -32.387499295060586  4.763246419363503  43.16187563631107  52.152366450917086  -15.846357615336537  -13.619073055342831  10.215446239011493  40.37658722283063  -1.104483488287874  19.84230324643533  0.000000
1.147  0.000000  0.000000  0.000000  -32.863093474589014  6.931820087994376  45.128157495348034  53.96062547518726  -16.18485767795483  -9.877286623207121  3.7859521360105512  41.55720732348999  3.016567713271735  19.44199766209598  0.000000
1.178  0.000000  0.000000  0.000000  -30.182614230047562  9.932816352052695  49.81023456016132  53.59834400860708  -12.812407599530127  -6.310918094220452  -9.426624120529887  37.783837434401946  13.16094119686983  18.445842214397462  0.000000
1.209  0.000000  0.000000  0.000000  -27.259374867787965  9.464071465580608  52.112640923551155  49.01214993691411  -4.378720015037938  0.4807246221939387  -25.078923365269535  34.1173828540455  26.01742006924847  17.329141685551775  0.000000
1.24  0.000000  0.000000  0.000000  -28.325165667749307  10.248111596293283  46.358313567000316  49.501557217677295  -8.460235922287126  3.5944080111411267  -21.64208302947111  42.556062680681315  21.47581644286497  16.604078150222648  0.000000
1.271  0.000000  0.000000  0.000000  -25.11358077863311  25.92213988959371  34.75255901936536  54.53523075273532  -29.388824842153543  -1.5190360880541016  -10.55776508524027  57.21063789008668  10.267160259106992  14.07444670413656  0.000000
1.302  0.000000  0.000000  0.000000  -14.907885540620427  38.022986261583455  23.727619875040972  24.670819195363173  -42.597601079230785  -0.3844870777706268  -0.13022236260238487  60.99210826877032  6.0124303122782425  15.925402910270547  0.000000
1.333  0.000000  0.000000  0.000000  -11.432201702138853  39.59182196741086  19.98661436637941  -4.9475070804386885  -45.07219061532316  1.6463875297694421  6.6766346519772855  60.55393544153491  3.8626953187747284  19.845696016523423  0.000000
1.3639999999999999  0.000000  0.000000  0.000000  -13.922529069531091  38.21343104392197  22.843599722431208  24.335761243540382  -42.70523137098506  -1.1485094193629644  1.152607129703468  62.89797672735025  1.5769445267707227  15.625429487134948  0.000000
1.395  0.000000  0.000000  0.000000  -23.593204905118196  26.158513418366443  37.07465914587999  51.51756907062178  -29.4536981459447  -4.693694329013802  -8.786952201945555  59.85865313190817  5.949213422554922  14.480599930229527  0.000000
1.426  0.000000  0.000000  0.000000  -25.99458521884695  10.315212306804792  47.63668298977813  48.664732314373595  -9.039783755068518  1.539667323687811  -14.884749705413581  47.560154365200184  12.525905009440113  16.71950645488428  0.000000
1.457  0.000000  0.000000  0.000000  -26.665141834047876  7.77387176977961  50.255818498414385  49.91012470038778  -4.415740983782005  0.3623088675108813  -11.283110187542027  43.55313624121848  10.256896925418603  16.353592286839564  0.000000
